<?xml version="1.0" encoding="utf-8"?>
<!-- Generator: Adobe Illustrator 28.0.0, SVG Export Plug-In . SVG Version: 6.00 Build 0)  -->
<svg version="1.1" id="Layer_1" xmlns="http://www.w3.org/2000/svg" xmlns:xlink="http://www.w3.org/1999/xlink" x="0px" y="0px"
	 viewBox="0 0 96 18" enable-background="new 0 0 96 18" xml:space="preserve">
<g>
	<path fill="#414141" d="M92.1,6.7C92.1,6.7,92.1,6.8,92.1,6.7c0,0.7-0.3,1.4-0.8,1.9c-1.3,1.2-2.6,2.5-3.8,3.8
		c-0.5,0.5-1.1,0.8-1.9,0.8c-25,0-50,0-75,0c-0.7,0-1.4-0.3-1.9-0.8C7.6,11.1,6.3,9.9,5,8.6C4.5,8.1,4.2,7.5,4.2,6.8c0,0,0,0,0,0
		c0-0.7,0.3-1.3,0.7-1.8C5.2,4.7,5.5,4.3,5.8,4C6.3,3.6,7,3.3,7.6,3.3c27,0,54,0,81,0c0.7,0,1.3,0.3,1.8,0.7
		c0.3,0.3,0.6,0.6,0.9,0.9C91.9,5.4,92.1,6.1,92.1,6.7z"/>
</g>
</svg>
