<svg width="48" height="48" viewBox="0 0 48 48" fill="none" xmlns="http://www.w3.org/2000/svg"><path d="M14.850 2.576 C 14.678 2.623,14.414 2.790,14.258 2.950 C 13.901 3.318,5.602 19.336,5.541 19.775 C 5.478 20.230,5.584 20.616,5.856 20.926 C 6.190 21.307,6.517 21.462,7.001 21.469 C 7.478 21.475,7.839 21.293,8.163 20.880 C 8.284 20.726,9.921 17.620,11.802 13.977 C 13.683 10.335,15.230 7.365,15.241 7.377 C 15.252 7.390,16.691 10.370,18.439 14.000 C 20.187 17.630,21.716 20.726,21.837 20.880 C 22.161 21.293,22.522 21.475,22.999 21.469 C 23.932 21.455,24.589 20.693,24.457 19.775 C 24.412 19.458,16.739 3.486,16.433 3.071 C 16.109 2.633,15.426 2.419,14.850 2.576 M35.629 2.554 C 35.276 2.641,34.923 2.912,34.706 3.261 L 34.520 3.560 34.480 21.940 L 34.440 40.321 31.720 37.597 C 30.224 36.099,28.878 34.796,28.729 34.703 C 28.534 34.581,28.328 34.533,27.993 34.533 C 27.440 34.533,27.007 34.775,26.717 35.246 C 26.469 35.646,26.463 36.345,26.702 36.729 C 26.796 36.878,28.755 38.877,31.056 41.172 C 35.070 45.174,35.255 45.347,35.620 45.422 C 35.868 45.473,36.132 45.473,36.380 45.422 C 36.745 45.347,36.930 45.174,40.979 41.134 C 43.341 38.778,45.256 36.805,45.328 36.651 C 45.506 36.277,45.494 35.674,45.302 35.303 C 45.216 35.136,44.997 34.895,44.815 34.767 C 44.542 34.574,44.405 34.533,44.022 34.533 C 43.768 34.533,43.469 34.579,43.360 34.636 C 43.250 34.692,41.891 36.003,40.340 37.548 L 37.520 40.357 37.518 22.198 C 37.517 10.006,37.489 3.922,37.434 3.682 C 37.245 2.864,36.431 2.355,35.629 2.554 M6.840 26.518 C 6.796 26.534,6.662 26.568,6.541 26.594 C 6.248 26.659,5.762 27.097,5.628 27.416 C 5.407 27.946,5.518 28.578,5.905 28.987 C 6.400 29.510,5.961 29.478,12.957 29.502 L 19.313 29.525 12.540 36.302 C 7.794 41.051,5.730 43.169,5.643 43.377 C 5.491 43.744,5.485 44.241,5.628 44.584 C 5.758 44.894,6.239 45.334,6.541 45.419 C 6.827 45.499,23.173 45.499,23.459 45.419 C 23.761 45.334,24.242 44.894,24.372 44.584 C 24.593 44.054,24.482 43.422,24.095 43.013 C 23.600 42.490,24.039 42.522,17.044 42.498 L 10.688 42.475 17.460 35.698 C 22.196 30.958,24.270 28.831,24.356 28.623 C 24.593 28.053,24.493 27.433,24.095 27.013 C 23.595 26.485,24.245 26.521,15.160 26.505 C 10.628 26.497,6.884 26.503,6.840 26.518 " stroke="none" fill-rule="evenodd" fill="black"></path></svg>