<svg width="48" height="48" viewBox="0 0 48 48" fill="none" xmlns="http://www.w3.org/2000/svg"><path d="M17.458 10.559 C 17.315 10.593,17.063 10.714,16.898 10.828 C 16.734 10.942,13.877 13.763,10.549 17.098 C 5.655 22.001,4.480 23.219,4.400 23.469 C 4.258 23.915,4.336 24.499,4.586 24.859 C 4.924 25.345,16.813 37.169,17.118 37.323 C 17.463 37.497,18.124 37.504,18.442 37.339 C 19.174 36.957,19.472 36.136,19.156 35.377 C 19.070 35.172,17.549 33.595,14.259 30.301 L 9.486 25.522 25.843 25.501 C 40.912 25.482,42.219 25.470,42.440 25.347 C 42.979 25.049,43.280 24.566,43.280 24.000 C 43.280 23.434,42.979 22.951,42.440 22.653 C 42.219 22.530,40.912 22.518,25.843 22.499 L 9.486 22.478 14.259 17.699 C 17.549 14.405,19.070 12.828,19.156 12.623 C 19.547 11.687,18.993 10.689,18.000 10.539 C 17.846 10.516,17.602 10.525,17.458 10.559 " stroke="none" fill-rule="evenodd" fill="black"></path></svg>