<svg width="48" height="48" viewBox="0 0 48 48" fill="none" xmlns="http://www.w3.org/2000/svg"><path d="M23.629 4.554 C 23.276 4.641,22.923 4.912,22.706 5.261 L 22.520 5.560 22.480 21.940 L 22.440 38.321 17.720 33.597 C 15.124 30.999,12.878 28.796,12.729 28.703 C 12.324 28.450,11.628 28.467,11.214 28.741 C 10.751 29.048,10.533 29.447,10.533 29.991 C 10.533 30.238,10.579 30.531,10.635 30.640 C 10.691 30.750,13.514 33.625,16.909 37.028 C 21.134 41.266,23.181 43.264,23.400 43.367 C 23.806 43.557,24.194 43.557,24.600 43.367 C 24.819 43.264,26.874 41.258,31.132 36.988 C 37.150 30.955,37.347 30.748,37.423 30.377 C 37.632 29.362,36.996 28.533,36.009 28.533 C 35.762 28.533,35.469 28.579,35.360 28.635 C 35.250 28.692,32.991 30.902,30.340 33.548 L 25.520 38.358 25.518 22.199 C 25.517 11.381,25.489 5.922,25.434 5.682 C 25.245 4.864,24.431 4.355,23.629 4.554 " stroke="none" fill-rule="evenodd" fill="black"></path></svg>