<svg width="48" height="48" viewBox="0 0 48 48" fill="none" xmlns="http://www.w3.org/2000/svg"><path d="M10.920 10.193 C 10.622 10.326,10.278 10.688,10.165 10.985 C 10.041 11.314,10.061 11.890,10.208 12.184 C 10.278 12.325,15.525 17.633,21.868 23.980 L 33.400 35.520 26.040 35.522 C 19.070 35.523,18.663 35.531,18.360 35.670 C 17.979 35.845,17.809 36.024,17.643 36.420 C 17.302 37.235,17.728 38.166,18.551 38.404 C 18.747 38.460,21.859 38.480,28.213 38.464 L 37.585 38.440 37.884 38.198 C 38.049 38.065,38.250 37.831,38.332 37.679 C 38.474 37.414,38.480 37.008,38.478 28.041 C 38.477 19.129,38.469 18.665,38.330 18.360 C 38.155 17.979,37.976 17.809,37.580 17.643 C 37.205 17.486,36.795 17.486,36.420 17.643 C 36.024 17.809,35.845 17.979,35.670 18.360 C 35.531 18.663,35.523 19.070,35.522 26.040 L 35.520 33.400 23.980 21.868 C 17.633 15.525,12.325 10.278,12.184 10.208 C 11.875 10.054,11.249 10.046,10.920 10.193 " stroke="none" fill-rule="evenodd" fill="black"></path></svg>