<svg width="48" height="48" viewBox="0 0 48 48" fill="none" xmlns="http://www.w3.org/2000/svg"><path d="M23.400 4.633 C 23.181 4.736,21.134 6.734,16.909 10.972 C 13.514 14.375,10.691 17.250,10.635 17.360 C 10.579 17.469,10.533 17.762,10.533 18.009 C 10.533 18.996,11.362 19.632,12.377 19.423 C 12.747 19.347,12.930 19.174,17.619 14.494 L 22.478 9.645 22.499 26.042 L 22.520 42.440 22.706 42.739 C 23.420 43.887,25.153 43.624,25.432 42.325 C 25.494 42.031,25.520 37.258,25.520 25.778 L 25.520 9.643 30.380 14.493 C 35.058 19.162,35.254 19.347,35.620 19.422 C 36.780 19.661,37.661 18.781,37.422 17.620 C 37.347 17.253,37.135 17.030,31.132 11.012 C 26.874 6.742,24.819 4.736,24.600 4.633 C 24.194 4.443,23.806 4.443,23.400 4.633 " stroke="none" fill-rule="evenodd" fill="black"></path></svg>