<svg width="48" height="48" viewBox="0 0 48 48" fill="none" xmlns="http://www.w3.org/2000/svg"><path d="M18.360 9.670 C 17.979 9.845,17.809 10.024,17.643 10.420 C 17.415 10.965,17.567 11.737,17.972 12.097 C 18.414 12.490,18.204 12.480,26.057 12.480 L 33.400 12.480 21.868 24.020 C 15.525 30.367,10.278 35.675,10.208 35.816 C 10.051 36.131,10.043 36.718,10.190 37.063 C 10.323 37.374,10.679 37.719,10.985 37.835 C 11.314 37.959,11.890 37.939,12.184 37.792 C 12.325 37.722,17.633 32.475,23.980 26.132 L 35.520 14.600 35.520 21.943 C 35.520 28.369,35.535 29.322,35.643 29.580 C 35.809 29.976,35.979 30.155,36.360 30.330 C 37.193 30.712,38.159 30.296,38.404 29.449 C 38.460 29.253,38.480 26.141,38.464 19.787 L 38.440 10.415 38.198 10.116 C 38.065 9.951,37.831 9.750,37.679 9.668 C 37.414 9.526,37.008 9.520,28.041 9.522 C 19.129 9.523,18.665 9.531,18.360 9.670 " stroke="none" fill-rule="evenodd" fill="black"></path></svg>