<svg width="48" height="48" viewBox="0 0 48 48" fill="none" xmlns="http://www.w3.org/2000/svg"><path d="M35.800 10.211 C 35.668 10.280,30.367 15.525,24.020 21.868 L 12.480 33.400 12.478 26.040 C 12.477 19.070,12.469 18.663,12.330 18.360 C 12.155 17.979,11.976 17.809,11.580 17.643 C 11.205 17.486,10.795 17.486,10.420 17.643 C 10.024 17.809,9.845 17.979,9.670 18.360 C 9.531 18.665,9.523 19.129,9.522 28.041 C 9.520 37.008,9.526 37.414,9.668 37.679 C 9.750 37.831,9.951 38.065,10.116 38.198 L 10.415 38.440 19.787 38.464 C 26.141 38.480,29.253 38.460,29.449 38.404 C 30.272 38.166,30.698 37.235,30.357 36.420 C 30.191 36.024,30.021 35.845,29.640 35.670 C 29.337 35.531,28.930 35.523,21.960 35.522 L 14.600 35.520 26.132 23.980 C 32.475 17.633,37.722 12.325,37.792 12.184 C 37.939 11.890,37.959 11.314,37.835 10.985 C 37.719 10.679,37.374 10.323,37.063 10.190 C 36.723 10.045,36.100 10.055,35.800 10.211 " stroke="none" fill-rule="evenodd" fill="black"></path></svg>