<svg width="48" height="48" viewBox="0 0 48 48" fill="none" xmlns="http://www.w3.org/2000/svg"><path d="M10.321 9.668 C 10.169 9.750,9.935 9.951,9.802 10.116 L 9.560 10.415 9.536 19.787 C 9.520 26.141,9.540 29.253,9.596 29.449 C 9.841 30.296,10.807 30.712,11.640 30.330 C 12.021 30.155,12.191 29.976,12.357 29.580 C 12.465 29.322,12.480 28.369,12.480 21.943 L 12.480 14.600 24.020 26.132 C 30.367 32.475,35.675 37.722,35.816 37.792 C 36.131 37.949,36.718 37.957,37.063 37.810 C 37.374 37.677,37.719 37.321,37.835 37.015 C 37.959 36.686,37.939 36.110,37.792 35.816 C 37.722 35.675,32.475 30.367,26.132 24.020 L 14.600 12.480 21.960 12.478 C 28.930 12.477,29.337 12.469,29.640 12.330 C 30.021 12.155,30.191 11.976,30.357 11.580 C 30.574 11.061,30.465 10.386,30.097 9.972 C 30.022 9.887,29.816 9.751,29.640 9.670 C 29.335 9.531,28.871 9.523,19.959 9.522 C 10.992 9.520,10.586 9.526,10.321 9.668 " stroke="none" fill-rule="evenodd" fill="black"></path></svg>