<svg width="48" height="48" viewBox="0 0 48 48" fill="none" xmlns="http://www.w3.org/2000/svg"><path d="M29.629 10.556 C 29.281 10.639,28.924 10.910,28.712 11.252 C 28.469 11.646,28.464 12.348,28.703 12.729 C 28.796 12.878,30.999 15.124,33.597 17.720 L 38.321 22.440 21.940 22.480 L 5.560 22.520 5.255 22.710 C 4.770 23.011,4.533 23.437,4.533 24.007 C 4.533 24.406,4.572 24.540,4.767 24.815 C 4.895 24.997,5.144 25.221,5.320 25.313 L 5.640 25.480 21.980 25.520 L 38.321 25.560 33.597 30.280 C 30.999 32.876,28.796 35.122,28.703 35.271 C 28.464 35.652,28.469 36.354,28.712 36.748 C 29.064 37.317,29.679 37.567,30.377 37.423 C 30.748 37.347,30.955 37.150,36.988 31.132 C 41.258 26.874,43.264 24.819,43.367 24.600 C 43.557 24.194,43.557 23.806,43.367 23.400 C 43.264 23.181,41.260 21.129,36.988 16.870 C 31.107 11.006,30.739 10.655,30.385 10.570 C 29.971 10.471,29.986 10.471,29.629 10.556 " stroke="none" fill-rule="evenodd" fill="black"></path></svg>