<svg width="48" height="48" viewBox="0 0 48 48" fill="none" xmlns="http://www.w3.org/2000/svg"><path d="M42.379 9.662 C 42.178 9.754,37.867 13.992,29.472 22.351 L 16.866 34.903 11.333 29.378 C 6.301 24.353,5.768 23.845,5.443 23.759 C 4.984 23.638,4.517 23.714,4.143 23.973 C 3.596 24.350,3.361 25.201,3.640 25.790 C 3.828 26.186,15.898 38.207,16.257 38.356 C 16.628 38.511,17.122 38.515,17.476 38.367 C 17.891 38.193,44.197 11.984,44.357 11.584 C 44.582 11.021,44.434 10.263,44.028 9.903 C 43.603 9.526,42.901 9.423,42.379 9.662 " stroke="none" fill-rule="evenodd" fill="black"></path></svg>