<svg width="48" height="48" viewBox="0 0 48 48" fill="none" xmlns="http://www.w3.org/2000/svg"><path d="M7.629 6.554 C 7.279 6.640,6.923 6.911,6.712 7.252 C 6.506 7.586,6.466 8.309,6.635 8.640 C 6.691 8.750,10.144 12.251,14.308 16.420 L 21.879 24.000 14.308 31.580 C 10.144 35.749,6.691 39.250,6.635 39.360 C 6.579 39.469,6.533 39.762,6.533 40.009 C 6.533 40.996,7.362 41.632,8.377 41.423 C 8.749 41.347,8.976 41.129,16.380 33.733 L 24.000 26.122 31.620 33.733 C 39.005 41.110,39.252 41.347,39.620 41.423 C 40.781 41.661,41.661 40.781,41.423 39.620 C 41.347 39.252,41.110 39.005,33.733 31.620 L 26.122 24.000 33.733 16.380 C 41.129 8.976,41.347 8.749,41.423 8.377 C 41.632 7.362,40.996 6.533,40.009 6.533 C 39.762 6.533,39.469 6.579,39.360 6.635 C 39.250 6.691,35.749 10.144,31.580 14.308 L 24.000 21.879 16.420 14.308 C 12.251 10.144,8.768 6.702,8.680 6.658 C 8.437 6.537,7.910 6.486,7.629 6.554 " stroke="none" fill-rule="evenodd" fill="black"></path></svg>