<svg width="48" height="48" viewBox="0 0 48 48" fill="none" xmlns="http://www.w3.org/2000/svg"><path d="M15.081 2.569 C 12.936 2.794,11.052 4.044,10.195 5.810 C 10.043 6.123,9.840 6.663,9.743 7.010 C 9.572 7.622,9.566 7.791,9.523 13.040 L 9.480 18.440 9.268 18.800 C 8.789 19.613,7.385 20.697,5.898 21.401 C 4.852 21.897,4.537 22.267,4.537 23.000 C 4.537 23.733,4.852 24.103,5.898 24.599 C 7.385 25.303,8.789 26.387,9.268 27.200 L 9.480 27.560 9.523 33.960 C 9.565 40.251,9.568 40.371,9.742 40.990 C 10.455 43.533,12.433 45.153,15.166 45.433 C 16.201 45.539,16.632 45.448,17.040 45.040 C 17.737 44.343,17.545 43.096,16.679 42.685 C 16.519 42.609,16.056 42.515,15.651 42.477 C 14.067 42.327,13.088 41.634,12.660 40.360 C 12.540 40.003,12.521 39.264,12.483 33.520 C 12.442 27.494,12.430 27.054,12.291 26.680 C 11.827 25.436,11.064 24.456,9.820 23.506 C 9.479 23.246,9.200 23.018,9.200 23.000 C 9.200 22.982,9.479 22.754,9.820 22.494 C 11.065 21.543,11.829 20.561,12.290 19.320 C 12.427 18.950,12.442 18.517,12.483 13.480 C 12.522 8.690,12.543 7.992,12.661 7.640 C 13.086 6.366,14.049 5.685,15.660 5.518 C 16.523 5.428,16.887 5.285,17.160 4.927 C 17.800 4.089,17.379 2.825,16.377 2.573 C 15.975 2.472,16.002 2.472,15.081 2.569 M31.629 2.555 C 30.661 2.789,30.196 4.008,30.767 4.815 C 31.088 5.270,31.430 5.424,32.331 5.517 C 33.952 5.685,34.913 6.363,35.339 7.640 C 35.457 7.992,35.478 8.690,35.517 13.480 C 35.558 18.517,35.573 18.950,35.710 19.320 C 36.171 20.561,36.935 21.543,38.180 22.494 C 38.521 22.754,38.800 22.982,38.800 23.000 C 38.800 23.018,38.521 23.246,38.180 23.506 C 36.936 24.456,36.173 25.436,35.709 26.680 C 35.570 27.054,35.558 27.494,35.517 33.520 C 35.479 39.264,35.460 40.003,35.340 40.360 C 34.906 41.652,33.938 42.326,32.289 42.483 C 31.379 42.570,31.029 42.739,30.717 43.246 C 30.464 43.654,30.462 44.343,30.712 44.748 C 31.104 45.382,31.636 45.554,32.828 45.433 C 35.567 45.154,37.545 43.536,38.258 40.990 C 38.432 40.371,38.435 40.251,38.477 33.960 L 38.520 27.560 38.732 27.200 C 39.211 26.387,40.615 25.303,42.102 24.599 C 43.148 24.103,43.463 23.733,43.463 23.000 C 43.463 22.267,43.148 21.897,42.102 21.401 C 40.615 20.697,39.211 19.613,38.732 18.800 L 38.520 18.440 38.477 13.040 C 38.435 7.848,38.427 7.617,38.263 7.033 C 37.716 5.078,36.524 3.735,34.691 3.006 C 33.779 2.644,32.217 2.414,31.629 2.555 " stroke="none" fill-rule="evenodd" fill="black"></path></svg>