<svg width="48" height="48" viewBox="0 0 48 48" fill="none" xmlns="http://www.w3.org/2000/svg"><path d="M27.621 2.555 C 27.270 2.642,26.865 2.964,26.695 3.291 C 26.496 3.674,19.501 43.667,19.544 44.177 C 19.596 44.791,20.129 45.356,20.768 45.476 C 21.389 45.593,22.232 45.084,22.402 44.491 C 22.472 44.248,29.053 6.746,29.397 4.626 C 29.525 3.842,29.470 3.486,29.157 3.071 C 28.841 2.653,28.157 2.423,27.621 2.555 M15.400 11.631 C 15.268 11.688,14.166 12.758,12.952 14.008 C 6.959 20.174,2.777 24.544,2.663 24.758 C 2.483 25.098,2.492 25.741,2.683 26.103 C 2.904 26.524,15.108 38.272,15.446 38.390 C 16.196 38.652,16.971 38.345,17.339 37.642 C 17.499 37.335,17.498 36.664,17.338 36.358 C 17.190 36.076,16.173 35.072,10.457 29.565 C 8.090 27.285,6.164 25.394,6.177 25.361 C 6.190 25.329,8.673 22.743,11.696 19.614 C 14.719 16.486,17.254 13.808,17.328 13.665 C 17.497 13.338,17.502 12.672,17.339 12.358 C 17.177 12.048,16.818 11.712,16.535 11.605 C 16.232 11.491,15.694 11.503,15.400 11.631 M31.440 11.605 C 31.174 11.717,30.815 12.064,30.661 12.358 C 30.497 12.673,30.503 13.338,30.673 13.667 C 30.748 13.811,33.282 16.488,36.304 19.616 C 39.327 22.744,41.811 25.329,41.823 25.361 C 41.836 25.394,39.910 27.285,37.543 29.565 C 31.852 35.047,30.811 36.075,30.662 36.358 C 30.502 36.664,30.501 37.335,30.661 37.642 C 31.029 38.345,31.804 38.652,32.554 38.390 C 32.882 38.276,45.095 26.524,45.310 26.115 C 45.515 25.727,45.506 25.045,45.291 24.700 C 45.109 24.407,33.122 11.980,32.781 11.731 C 32.528 11.545,31.755 11.473,31.440 11.605 " stroke="none" fill-rule="evenodd" fill="black"></path></svg>