<svg width="48" height="48" viewBox="0 0 48 48" fill="none" xmlns="http://www.w3.org/2000/svg"><path d="M23.800 2.518 C 23.756 2.533,23.612 2.570,23.480 2.599 C 23.155 2.670,15.893 9.889,15.673 10.360 C 15.483 10.767,15.483 11.233,15.673 11.640 C 15.773 11.855,17.037 13.169,19.531 15.652 C 23.077 19.182,23.257 19.347,23.620 19.422 C 23.869 19.473,24.131 19.473,24.380 19.422 C 24.743 19.347,24.923 19.182,28.469 15.652 C 30.963 13.169,32.227 11.855,32.327 11.640 C 32.517 11.232,32.517 10.767,32.327 10.360 C 32.226 10.145,30.970 8.839,28.508 6.389 C 26.491 4.381,24.768 2.702,24.680 2.658 C 24.497 2.567,23.920 2.475,23.800 2.518 M26.460 8.580 L 28.880 11.001 26.440 13.440 L 24.000 15.879 21.560 13.440 L 19.120 11.001 21.540 8.580 C 22.870 7.249,23.977 6.160,24.000 6.160 C 24.023 6.160,25.130 7.249,26.460 8.580 M10.360 15.673 C 9.904 15.886,2.674 23.150,2.590 23.480 C 2.556 23.612,2.528 23.846,2.528 24.000 C 2.528 24.154,2.556 24.388,2.590 24.520 C 2.674 24.850,9.904 32.114,10.360 32.327 C 10.767 32.517,11.233 32.517,11.640 32.327 C 11.855 32.227,13.169 30.963,15.652 28.469 C 19.182 24.923,19.347 24.743,19.422 24.380 C 19.473 24.131,19.473 23.869,19.422 23.620 C 19.347 23.257,19.182 23.077,15.652 19.531 C 13.169 17.037,11.855 15.773,11.640 15.673 C 11.464 15.591,11.176 15.524,11.000 15.524 C 10.824 15.524,10.536 15.591,10.360 15.673 M36.658 16.559 C 36.515 16.593,36.263 16.714,36.098 16.828 C 35.621 17.159,28.833 24.011,28.678 24.318 C 28.497 24.675,28.497 25.323,28.677 25.682 C 28.859 26.045,35.955 33.141,36.318 33.323 C 36.676 33.503,37.324 33.503,37.682 33.323 C 38.045 33.141,45.141 26.045,45.323 25.682 C 45.503 25.324,45.503 24.676,45.323 24.318 C 45.151 23.975,38.053 16.862,37.720 16.699 C 37.395 16.540,36.974 16.484,36.658 16.559 M13.440 26.440 L 11.001 28.880 8.561 26.440 L 6.121 24.000 8.560 21.560 L 10.999 19.120 13.439 21.560 L 15.879 24.000 13.440 26.440 M39.420 27.420 L 37.001 29.840 34.580 27.420 L 32.160 25.001 34.580 22.580 L 36.999 20.160 39.420 22.580 L 41.840 24.999 39.420 27.420 M23.800 28.518 C 23.756 28.533,23.612 28.570,23.480 28.599 C 23.155 28.670,15.893 35.889,15.673 36.360 C 15.483 36.767,15.483 37.233,15.673 37.640 C 15.773 37.855,17.037 39.169,19.531 41.652 C 23.077 45.182,23.257 45.347,23.620 45.422 C 23.869 45.473,24.131 45.473,24.380 45.422 C 24.743 45.347,24.923 45.182,28.469 41.652 C 30.963 39.169,32.227 37.855,32.327 37.640 C 32.517 37.232,32.517 36.767,32.327 36.360 C 32.226 36.145,30.970 34.839,28.508 32.389 C 26.491 30.381,24.768 28.702,24.680 28.658 C 24.497 28.567,23.920 28.475,23.800 28.518 M26.460 34.580 L 28.880 37.001 26.440 39.440 L 24.000 41.879 21.560 39.440 L 19.120 37.001 21.540 34.580 C 22.870 33.249,23.977 32.160,24.000 32.160 C 24.023 32.160,25.130 33.249,26.460 34.580 " fill="black" stroke="none" fill-rule="evenodd"></path></svg>