<svg width="48" height="48" viewBox="0 0 48 48" fill="none" xmlns="http://www.w3.org/2000/svg"><path d="M6.360 2.563 C 4.656 2.790,3.246 4.006,2.699 5.720 L 2.520 6.280 2.520 24.000 C 2.520 40.974,2.526 41.740,2.667 42.200 C 3.134 43.724,4.276 44.866,5.800 45.333 C 6.260 45.474,7.026 45.480,24.000 45.480 C 40.974 45.480,41.740 45.474,42.200 45.333 C 43.724 44.866,44.866 43.724,45.333 42.200 C 45.474 41.740,45.480 40.974,45.480 24.000 C 45.480 7.026,45.474 6.260,45.333 5.800 C 44.872 4.297,43.770 3.181,42.240 2.668 C 41.818 2.526,41.082 2.520,24.320 2.509 C 14.706 2.504,6.624 2.527,6.360 2.563 M41.679 5.668 C 41.831 5.750,42.065 5.951,42.198 6.116 L 42.440 6.415 42.461 18.447 L 42.482 30.480 24.000 30.480 L 5.518 30.480 5.539 18.447 L 5.560 6.415 5.802 6.116 C 5.935 5.951,6.169 5.750,6.321 5.668 C 6.588 5.525,7.203 5.520,24.000 5.520 C 40.797 5.520,41.412 5.525,41.679 5.668 M42.462 37.553 L 42.440 41.585 42.198 41.884 C 42.065 42.049,41.831 42.250,41.679 42.332 C 41.412 42.475,40.797 42.480,24.000 42.480 C 7.203 42.480,6.588 42.475,6.321 42.332 C 6.169 42.250,5.935 42.049,5.802 41.884 L 5.560 41.585 5.538 37.553 L 5.516 33.520 24.000 33.520 L 42.484 33.520 42.462 37.553 M9.629 36.551 C 8.963 36.723,8.533 37.296,8.533 38.014 C 8.533 38.406,8.573 38.541,8.767 38.815 C 9.146 39.352,9.484 39.480,10.520 39.479 C 11.478 39.478,11.694 39.411,12.095 38.987 C 12.362 38.705,12.480 38.402,12.480 38.000 C 12.480 37.432,12.170 36.938,11.640 36.660 C 11.368 36.518,10.038 36.446,9.629 36.551 M25.629 36.556 C 24.662 36.787,24.196 38.008,24.767 38.815 C 24.895 38.997,25.144 39.221,25.320 39.313 C 25.635 39.478,25.731 39.480,31.756 39.502 C 36.040 39.518,38.001 39.498,38.303 39.435 C 39.805 39.123,39.861 36.946,38.377 36.573 C 37.959 36.467,26.066 36.452,25.629 36.556 " fill="black" stroke="none" fill-rule="evenodd"></path></svg>