<svg width="48" height="48" viewBox="0 0 48 48" fill="none" xmlns="http://www.w3.org/2000/svg"><path d="M11.629 16.556 C 11.281 16.639,10.924 16.910,10.712 17.252 C 10.469 17.646,10.465 18.348,10.703 18.729 C 10.796 18.878,13.655 21.777,17.056 25.172 C 23.032 31.137,23.253 31.347,23.620 31.422 C 23.866 31.473,24.134 31.473,24.380 31.423 C 24.748 31.348,24.964 31.141,31.053 25.053 C 37.141 18.964,37.348 18.748,37.423 18.380 C 37.596 17.532,37.153 16.768,36.372 16.571 C 36.032 16.486,35.881 16.493,35.400 16.616 C 35.312 16.638,32.711 19.181,29.620 22.267 L 24.000 27.877 18.380 22.267 L 12.760 16.656 12.336 16.568 C 12.103 16.520,11.905 16.484,11.896 16.488 C 11.887 16.493,11.767 16.523,11.629 16.556 " stroke="none" fill-rule="evenodd" fill="black"></path></svg>