<svg width="48" height="48" viewBox="0 0 48 48" fill="none" xmlns="http://www.w3.org/2000/svg"><path d="M9.520 2.564 C 8.924 2.649,8.650 2.742,8.233 3.000 C 7.470 3.473,6.859 4.265,6.632 5.080 C 6.538 5.417,6.520 8.390,6.520 24.000 C 6.520 39.610,6.538 42.583,6.632 42.920 C 6.859 43.733,7.470 44.528,8.229 44.997 C 9.021 45.488,8.740 45.469,15.588 45.500 C 20.071 45.520,21.981 45.502,22.295 45.437 C 23.137 45.262,23.609 44.506,23.422 43.632 C 23.318 43.143,22.880 42.699,22.377 42.573 C 22.114 42.506,20.265 42.480,15.897 42.480 C 10.077 42.480,9.778 42.473,9.652 42.334 C 9.530 42.198,9.520 40.810,9.520 23.986 C 9.520 6.455,9.525 5.780,9.666 5.652 C 9.801 5.531,10.573 5.520,19.143 5.520 L 28.474 5.520 28.497 9.993 L 28.520 14.466 28.760 14.806 C 28.892 14.993,29.144 15.221,29.320 15.313 C 29.632 15.476,29.756 15.481,34.056 15.503 L 38.473 15.526 38.496 19.463 C 38.522 23.780,38.504 23.613,39.013 24.095 C 39.567 24.619,40.433 24.619,40.987 24.095 C 41.503 23.607,41.478 23.874,41.503 18.578 C 41.525 13.929,41.520 13.744,41.369 13.418 C 41.212 13.081,32.254 3.085,31.834 2.780 C 31.720 2.697,31.486 2.597,31.314 2.557 C 30.929 2.467,10.146 2.474,9.520 2.564 M34.208 9.801 C 35.392 11.121,36.409 12.264,36.470 12.341 C 36.574 12.472,36.443 12.480,34.050 12.480 L 31.520 12.480 31.520 9.661 L 31.520 6.843 31.788 7.121 C 31.936 7.275,33.025 8.480,34.208 9.801 M28.840 28.519 C 28.796 28.534,28.662 28.568,28.541 28.594 C 28.248 28.659,27.762 29.097,27.628 29.416 C 27.485 29.758,27.491 30.256,27.642 30.617 C 27.721 30.807,28.650 31.799,30.299 33.455 L 32.833 36.001 30.300 38.542 C 28.628 40.219,27.725 41.184,27.644 41.379 C 27.327 42.136,27.627 42.957,28.358 43.339 C 28.677 43.505,29.337 43.497,29.682 43.322 C 29.835 43.244,31.094 42.052,32.480 40.673 L 35.001 38.165 37.520 40.673 C 38.906 42.052,40.165 43.244,40.318 43.322 C 40.663 43.497,41.323 43.505,41.642 43.339 C 42.371 42.958,42.672 42.136,42.358 41.383 C 42.279 41.193,41.350 40.201,39.702 38.546 L 37.168 36.000 39.702 33.454 C 41.350 31.799,42.279 30.807,42.358 30.617 C 42.672 29.864,42.371 29.042,41.642 28.661 C 41.323 28.495,40.663 28.503,40.318 28.678 C 40.165 28.756,38.906 29.948,37.520 31.327 L 35.001 33.835 32.480 31.327 C 31.094 29.948,29.852 28.766,29.720 28.700 C 29.468 28.575,28.976 28.474,28.840 28.519 " stroke="none" fill-rule="evenodd" fill="black"></path></svg>