<svg width="48" height="48" viewBox="0 0 48 48" fill="none" xmlns="http://www.w3.org/2000/svg"><path d="M9.520 2.564 C 8.924 2.649,8.650 2.742,8.233 3.000 C 7.470 3.473,6.859 4.265,6.632 5.080 C 6.538 5.417,6.520 8.390,6.520 24.000 C 6.520 39.610,6.538 42.583,6.632 42.920 C 6.859 43.733,7.470 44.528,8.229 44.997 C 9.021 45.488,8.740 45.469,15.588 45.500 C 20.071 45.520,21.981 45.502,22.295 45.437 C 23.137 45.262,23.609 44.506,23.422 43.632 C 23.318 43.143,22.880 42.699,22.377 42.573 C 22.114 42.506,20.265 42.480,15.897 42.480 C 10.077 42.480,9.778 42.473,9.652 42.334 C 9.530 42.198,9.520 40.810,9.520 23.986 C 9.520 6.455,9.525 5.780,9.666 5.652 C 9.801 5.531,10.573 5.520,19.143 5.520 L 28.474 5.520 28.497 9.993 L 28.520 14.466 28.760 14.806 C 28.892 14.993,29.144 15.221,29.320 15.313 C 29.632 15.476,29.756 15.481,34.056 15.503 L 38.473 15.526 38.496 19.463 C 38.522 23.780,38.504 23.613,39.013 24.095 C 39.567 24.619,40.433 24.619,40.987 24.095 C 41.503 23.607,41.478 23.874,41.503 18.578 C 41.525 13.929,41.520 13.744,41.369 13.418 C 41.212 13.081,32.254 3.085,31.834 2.780 C 31.720 2.697,31.486 2.597,31.314 2.557 C 30.929 2.467,10.146 2.474,9.520 2.564 M34.208 9.801 C 35.392 11.121,36.409 12.264,36.470 12.341 C 36.574 12.472,36.443 12.480,34.050 12.480 L 31.520 12.480 31.520 9.661 L 31.520 6.843 31.788 7.121 C 31.936 7.275,33.025 8.480,34.208 9.801 M32.360 27.670 C 31.979 27.845,31.809 28.024,31.643 28.420 C 31.540 28.667,31.520 29.184,31.520 31.593 L 31.520 34.471 28.540 34.496 C 25.563 34.520,25.560 34.520,25.255 34.710 C 24.770 35.011,24.533 35.437,24.533 36.007 C 24.533 36.406,24.572 36.540,24.767 36.815 C 24.895 36.997,25.144 37.221,25.320 37.313 C 25.625 37.472,25.779 37.481,28.580 37.505 L 31.520 37.529 31.522 40.425 C 31.523 43.063,31.537 43.348,31.670 43.640 C 31.845 44.021,32.024 44.191,32.420 44.357 C 32.795 44.514,33.205 44.514,33.580 44.357 C 33.976 44.191,34.155 44.021,34.330 43.640 C 34.463 43.348,34.477 43.062,34.478 40.420 L 34.480 37.520 37.196 37.520 C 40.325 37.520,40.594 37.486,41.040 37.040 C 41.836 36.244,41.460 34.845,40.377 34.573 C 40.134 34.511,39.075 34.480,37.245 34.480 L 34.480 34.480 34.478 31.580 C 34.477 28.938,34.463 28.652,34.330 28.360 C 34.155 27.979,33.976 27.809,33.580 27.643 C 33.190 27.480,32.753 27.490,32.360 27.670 " stroke="none" fill-rule="evenodd" fill="black"></path></svg>