<svg width="48" height="48" viewBox="0 0 48 48" fill="none" xmlns="http://www.w3.org/2000/svg"><path d="M9.520 2.564 C 8.924 2.649,8.650 2.742,8.233 3.000 C 7.470 3.473,6.859 4.265,6.632 5.080 C 6.538 5.417,6.520 8.390,6.520 24.000 C 6.520 39.610,6.538 42.583,6.632 42.920 C 6.859 43.733,7.470 44.528,8.229 44.997 C 9.021 45.488,8.740 45.469,15.588 45.500 C 20.071 45.520,21.981 45.502,22.295 45.437 C 23.137 45.262,23.609 44.506,23.422 43.632 C 23.318 43.143,22.880 42.699,22.377 42.573 C 22.114 42.506,20.265 42.480,15.897 42.480 C 10.077 42.480,9.778 42.473,9.652 42.334 C 9.530 42.198,9.520 40.810,9.520 23.986 C 9.520 6.455,9.525 5.780,9.666 5.652 C 9.801 5.531,10.573 5.520,19.143 5.520 L 28.474 5.520 28.497 9.993 L 28.520 14.466 28.760 14.806 C 28.892 14.993,29.144 15.221,29.320 15.313 C 29.632 15.476,29.756 15.481,34.056 15.503 L 38.473 15.526 38.496 19.463 C 38.522 23.780,38.504 23.613,39.013 24.095 C 39.567 24.619,40.433 24.619,40.987 24.095 C 41.503 23.607,41.478 23.874,41.503 18.578 C 41.525 13.929,41.520 13.744,41.369 13.418 C 41.212 13.081,32.254 3.085,31.834 2.780 C 31.720 2.697,31.486 2.597,31.314 2.557 C 30.929 2.467,10.146 2.474,9.520 2.564 M34.208 9.801 C 35.392 11.121,36.409 12.264,36.470 12.341 C 36.574 12.472,36.443 12.480,34.050 12.480 L 31.520 12.480 31.520 9.661 L 31.520 6.843 31.788 7.121 C 31.936 7.275,33.025 8.480,34.208 9.801 M30.360 29.673 C 29.909 29.883,24.675 35.150,24.590 35.480 C 24.556 35.612,24.528 35.846,24.528 36.000 C 24.528 36.154,24.556 36.388,24.590 36.520 C 24.675 36.850,29.909 42.117,30.360 42.327 C 30.897 42.578,31.596 42.481,32.028 42.097 C 32.255 41.896,32.476 41.364,32.478 41.017 C 32.482 40.419,32.300 40.186,30.178 38.060 L 28.121 36.000 30.178 33.940 C 32.300 31.814,32.482 31.581,32.478 30.983 C 32.476 30.636,32.255 30.104,32.028 29.903 C 31.596 29.519,30.897 29.422,30.360 29.673 M36.360 29.670 C 35.979 29.845,35.809 30.024,35.643 30.420 C 35.487 30.795,35.487 31.204,35.643 31.583 C 35.724 31.778,36.468 32.584,37.822 33.940 L 39.879 36.000 37.822 38.060 C 35.700 40.186,35.518 40.419,35.522 41.017 C 35.524 41.364,35.745 41.896,35.972 42.097 C 36.404 42.481,37.103 42.578,37.640 42.327 C 37.851 42.229,38.873 41.259,40.651 39.469 C 43.199 36.904,43.347 36.740,43.422 36.380 C 43.474 36.130,43.474 35.870,43.422 35.620 C 43.347 35.260,43.199 35.096,40.651 32.531 C 38.873 30.741,37.851 29.771,37.640 29.673 C 37.234 29.483,36.769 29.483,36.360 29.670 " stroke="none" fill-rule="evenodd" fill="black"></path></svg>