<svg width="48" height="48" viewBox="0 0 48 48" fill="none" xmlns="http://www.w3.org/2000/svg"><path d="M9.520 2.564 C 8.924 2.649,8.650 2.742,8.233 3.000 C 7.470 3.473,6.859 4.265,6.632 5.080 C 6.538 5.417,6.520 8.390,6.520 24.000 C 6.520 44.314,6.485 42.887,7.006 43.760 C 7.454 44.509,8.170 45.082,8.990 45.347 C 9.366 45.469,10.614 45.480,23.960 45.480 C 39.929 45.480,38.893 45.512,39.760 44.994 C 40.486 44.560,41.059 43.858,41.344 43.051 C 41.464 42.713,41.478 41.398,41.502 28.280 C 41.521 17.723,41.504 13.795,41.438 13.560 C 41.361 13.288,40.558 12.449,36.134 8.012 C 32.585 4.453,30.818 2.735,30.600 2.633 C 30.292 2.489,29.894 2.484,20.120 2.492 C 14.532 2.497,9.762 2.529,9.520 2.564 M28.497 9.993 L 28.520 14.466 28.760 14.806 C 28.892 14.993,29.144 15.221,29.320 15.313 C 29.632 15.476,29.756 15.481,34.060 15.503 L 38.480 15.526 38.480 28.857 C 38.480 41.149,38.470 42.199,38.348 42.334 C 38.220 42.474,37.670 42.480,24.014 42.480 C 10.912 42.480,9.801 42.470,9.666 42.348 C 9.525 42.220,9.520 41.545,9.520 24.014 C 9.520 7.190,9.530 5.802,9.652 5.666 C 9.779 5.526,10.178 5.520,19.129 5.520 L 28.474 5.520 28.497 9.993 M33.960 10.080 L 36.359 12.480 33.939 12.480 L 31.520 12.480 31.520 10.080 C 31.520 8.760,31.529 7.680,31.541 7.680 C 31.552 7.680,32.641 8.760,33.960 10.080 " fill="black" stroke="none" fill-rule="evenodd"></path></svg>