<svg width="48" height="48" viewBox="0 0 48 48" fill="none" xmlns="http://www.w3.org/2000/svg"><path d="M6.100 5.644 C 5.456 5.817,5.050 6.057,4.542 6.565 C 4.047 7.060,3.736 7.628,3.600 8.280 C 3.544 8.550,3.524 14.051,3.539 25.240 L 3.560 41.800 3.743 42.252 C 4.100 43.135,4.863 43.900,5.740 44.254 L 6.200 44.440 24.000 44.440 L 41.800 44.440 42.260 44.254 C 43.137 43.900,43.900 43.135,44.257 42.252 L 44.440 41.800 44.440 28.000 L 44.440 14.200 44.254 13.740 C 43.900 12.863,43.135 12.100,42.252 11.743 L 41.800 11.560 33.260 11.538 L 24.720 11.516 22.329 8.650 C 20.297 6.215,19.888 5.764,19.607 5.652 C 19.309 5.533,18.650 5.521,12.898 5.525 C 7.666 5.530,6.445 5.551,6.100 5.644 M20.573 11.230 C 21.833 12.743,23.000 14.084,23.166 14.210 L 23.467 14.440 32.341 14.480 L 41.214 14.520 41.367 14.709 C 41.516 14.893,41.520 15.219,41.520 28.012 L 41.520 41.127 41.324 41.324 L 41.127 41.520 24.000 41.520 L 6.873 41.520 6.676 41.324 L 6.480 41.127 6.480 25.000 L 6.480 8.873 6.676 8.676 L 6.873 8.480 12.577 8.480 L 18.281 8.480 20.573 11.230 " fill="black" stroke="none" fill-rule="evenodd"></path></svg>