<svg width="48" height="48" viewBox="0 0 48 48" fill="none" xmlns="http://www.w3.org/2000/svg"><path d="M6.446 4.569 C 5.479 4.710,4.485 5.392,3.973 6.266 C 3.493 7.084,3.520 6.035,3.520 24.000 C 3.520 38.413,3.535 40.504,3.641 40.910 C 3.984 42.229,5.133 43.237,6.520 43.436 C 7.289 43.547,40.711 43.547,41.480 43.436 C 42.873 43.236,44.016 42.225,44.366 40.883 C 44.543 40.207,44.536 13.769,44.359 13.090 C 44.016 11.771,42.867 10.763,41.480 10.564 C 41.134 10.514,37.821 10.483,32.800 10.482 L 24.680 10.480 22.360 7.704 C 21.084 6.178,19.947 4.862,19.834 4.779 C 19.720 4.697,19.486 4.597,19.314 4.557 C 18.916 4.464,7.086 4.475,6.446 4.569 M20.678 10.351 C 22.401 12.416,23.120 13.221,23.339 13.331 C 23.627 13.473,24.029 13.481,32.440 13.500 L 41.240 13.520 41.380 13.689 C 41.512 13.848,41.520 14.602,41.520 27.009 C 41.520 40.053,41.519 40.161,41.360 40.320 C 41.201 40.479,41.093 40.480,23.965 40.480 L 6.729 40.480 6.605 40.302 C 6.493 40.143,6.480 38.464,6.480 24.000 C 6.480 9.536,6.493 7.857,6.605 7.698 L 6.729 7.520 12.524 7.520 L 18.318 7.520 20.678 10.351 M23.440 19.610 C 23.181 19.712,22.821 20.056,22.653 20.360 C 22.539 20.566,22.516 20.949,22.495 23.060 L 22.470 25.520 20.080 25.520 C 18.586 25.520,17.606 25.552,17.465 25.605 C 16.920 25.811,16.537 26.387,16.537 27.000 C 16.537 27.613,16.920 28.189,17.465 28.395 C 17.606 28.448,18.586 28.480,20.080 28.480 L 22.470 28.480 22.495 30.940 C 22.522 33.624,22.524 33.632,23.013 34.095 C 23.567 34.619,24.433 34.619,24.987 34.095 C 25.476 33.632,25.478 33.624,25.505 30.940 L 25.530 28.480 27.920 28.480 C 29.414 28.480,30.394 28.448,30.535 28.395 C 31.080 28.189,31.463 27.613,31.463 27.000 C 31.463 26.387,31.080 25.811,30.535 25.605 C 30.394 25.552,29.414 25.520,27.920 25.520 L 25.530 25.520 25.505 23.060 C 25.484 20.949,25.461 20.566,25.347 20.360 C 25.172 20.043,24.814 19.711,24.535 19.605 C 24.258 19.501,23.709 19.503,23.440 19.610 " fill="black" stroke="none" fill-rule="evenodd"></path></svg>