<svg width="48" height="48" viewBox="0 0 48 48" fill="none" xmlns="http://www.w3.org/2000/svg"><path d="M6.446 4.569 C 5.479 4.710,4.485 5.392,3.973 6.266 C 3.493 7.084,3.520 6.035,3.520 24.000 C 3.520 38.413,3.535 40.504,3.641 40.910 C 3.984 42.229,5.133 43.237,6.520 43.436 C 7.326 43.552,21.782 43.548,22.325 43.432 C 23.807 43.114,23.847 40.943,22.377 40.573 C 22.111 40.506,19.895 40.480,14.369 40.480 L 6.729 40.480 6.605 40.302 C 6.493 40.143,6.480 38.464,6.480 24.000 C 6.480 9.536,6.493 7.857,6.605 7.698 L 6.729 7.520 12.524 7.520 L 18.318 7.520 20.678 10.351 C 22.401 12.416,23.120 13.221,23.339 13.331 C 23.627 13.473,24.029 13.481,32.440 13.500 L 41.240 13.520 41.380 13.689 C 41.510 13.845,41.520 14.202,41.522 18.589 C 41.523 23.008,41.533 23.341,41.670 23.640 C 41.845 24.021,42.024 24.191,42.420 24.357 C 42.795 24.514,43.205 24.514,43.580 24.357 C 43.976 24.191,44.155 24.021,44.330 23.640 C 44.467 23.341,44.477 23.004,44.478 18.437 C 44.480 14.335,44.461 13.479,44.359 13.090 C 44.016 11.771,42.867 10.763,41.480 10.564 C 41.134 10.514,37.821 10.483,32.800 10.482 L 24.680 10.480 22.360 7.704 C 21.084 6.178,19.947 4.862,19.834 4.779 C 19.720 4.697,19.486 4.597,19.314 4.557 C 18.916 4.464,7.086 4.475,6.446 4.569 M29.361 27.647 C 29.061 27.777,24.147 32.619,23.785 33.141 C 23.536 33.501,23.458 34.087,23.601 34.531 C 23.679 34.773,24.279 35.420,26.390 37.536 C 28.201 39.352,29.177 40.273,29.377 40.356 C 30.137 40.672,30.957 40.373,31.339 39.642 C 31.505 39.322,31.497 38.663,31.321 38.318 C 31.243 38.165,30.277 37.131,29.173 36.020 L 27.167 34.000 29.173 31.980 C 30.277 30.869,31.243 29.835,31.321 29.682 C 31.497 29.337,31.505 28.678,31.339 28.358 C 31.177 28.048,30.818 27.712,30.535 27.605 C 30.219 27.486,29.690 27.505,29.361 27.647 M37.440 27.610 C 37.177 27.714,36.817 28.061,36.661 28.358 C 36.495 28.678,36.503 29.337,36.679 29.682 C 36.757 29.835,37.723 30.869,38.827 31.980 L 40.833 34.000 38.827 36.020 C 37.723 37.131,36.757 38.165,36.679 38.318 C 36.503 38.663,36.495 39.322,36.661 39.642 C 37.043 40.374,37.864 40.672,38.623 40.356 C 39.034 40.184,44.184 35.034,44.356 34.623 C 44.424 34.459,44.480 34.179,44.480 34.000 C 44.480 33.821,44.424 33.541,44.356 33.377 C 44.184 32.966,39.034 27.816,38.623 27.644 C 38.290 27.505,37.743 27.489,37.440 27.610 " stroke="none" fill-rule="evenodd" fill="black"></path></svg>