<svg width="48" height="48" viewBox="0 0 48 48" fill="none" xmlns="http://www.w3.org/2000/svg"><path d="M30.658 10.559 C 30.515 10.593,30.263 10.714,30.098 10.828 C 29.934 10.942,27.093 13.746,23.784 17.058 C 19.586 21.260,17.730 23.170,17.644 23.377 C 17.486 23.757,17.486 24.243,17.643 24.623 C 17.795 24.988,29.892 37.110,30.318 37.324 C 30.664 37.497,31.325 37.504,31.642 37.339 C 32.374 36.957,32.672 36.136,32.356 35.377 C 32.270 35.171,30.538 33.385,26.698 29.540 L 21.164 24.000 26.698 18.460 C 30.538 14.615,32.270 12.829,32.356 12.623 C 32.746 11.686,32.193 10.689,31.200 10.539 C 31.046 10.516,30.802 10.525,30.658 10.559 " stroke="none" fill-rule="evenodd" fill="black"></path></svg>