<svg width="48" height="48" viewBox="0 0 48 48" fill="none" xmlns="http://www.w3.org/2000/svg"><path d="M23.629 2.555 C 22.660 2.791,22.196 4.008,22.767 4.815 C 23.148 5.356,23.425 5.450,24.840 5.525 C 30.194 5.807,34.840 8.137,38.306 12.280 C 40.043 14.356,41.494 17.334,42.069 20.003 C 42.621 22.566,42.621 25.434,42.069 27.997 C 41.490 30.686,40.007 33.710,38.242 35.800 C 36.495 37.870,34.480 39.452,32.121 40.608 C 29.523 41.881,26.923 42.480,24.000 42.480 C 21.075 42.480,18.473 41.880,15.880 40.608 C 10.245 37.843,6.464 32.555,5.643 26.293 C 5.576 25.775,5.520 25.067,5.520 24.720 C 5.520 23.767,5.398 23.318,5.044 22.964 C 4.216 22.136,2.810 22.531,2.555 23.664 C 2.463 24.070,2.606 26.325,2.796 27.484 C 4.191 35.970,10.563 42.850,18.901 44.872 C 22.212 45.675,25.788 45.675,29.099 44.872 C 36.856 42.991,42.991 36.856,44.872 29.099 C 45.675 25.788,45.675 22.212,44.872 18.901 C 42.854 10.578,35.955 4.179,27.515 2.802 C 26.200 2.588,24.055 2.451,23.629 2.555 " stroke="none" fill-rule="evenodd" fill="black"></path></svg>