<svg width="48" height="48" viewBox="0 0 48 48" fill="none" xmlns="http://www.w3.org/2000/svg"><path d="M23.629 2.555 C 22.660 2.791,22.196 4.008,22.767 4.815 C 23.148 5.356,23.425 5.450,24.840 5.525 C 30.194 5.807,34.840 8.137,38.306 12.280 C 40.043 14.356,41.494 17.334,42.069 20.003 C 42.621 22.566,42.621 25.434,42.069 27.997 C 41.490 30.686,40.007 33.710,38.242 35.800 C 36.495 37.870,34.480 39.452,32.121 40.608 C 29.523 41.881,26.923 42.480,24.000 42.480 C 21.075 42.480,18.473 41.880,15.880 40.608 C 10.245 37.843,6.464 32.555,5.643 26.293 C 5.576 25.775,5.520 25.067,5.520 24.720 C 5.520 23.767,5.398 23.318,5.044 22.964 C 4.216 22.136,2.810 22.531,2.555 23.664 C 2.463 24.070,2.606 26.325,2.796 27.484 C 4.191 35.970,10.563 42.850,18.901 44.872 C 22.212 45.675,25.788 45.675,29.099 44.872 C 36.856 42.991,42.991 36.856,44.872 29.099 C 45.675 25.788,45.675 22.212,44.872 18.901 C 42.854 10.578,35.955 4.179,27.515 2.802 C 26.200 2.588,24.055 2.451,23.629 2.555 M22.960 10.565 C 16.333 11.047,11.028 16.392,10.565 23.055 C 10.048 30.496,15.626 36.919,23.055 37.435 C 24.262 37.519,24.636 37.444,25.040 37.040 C 25.741 36.339,25.545 35.096,24.667 34.679 C 24.467 34.584,24.055 34.515,23.443 34.475 C 21.881 34.372,20.687 34.057,19.340 33.393 C 18.463 32.961,17.953 32.624,17.175 31.960 C 15.413 30.457,14.204 28.407,13.706 26.080 C 13.501 25.124,13.501 22.876,13.706 21.920 C 14.092 20.117,14.856 18.562,16.040 17.175 C 17.543 15.413,19.593 14.204,21.920 13.706 C 22.431 13.596,22.949 13.560,24.000 13.560 C 25.928 13.560,27.044 13.811,28.660 14.607 C 29.537 15.039,30.047 15.376,30.825 16.040 C 31.908 16.964,32.766 18.066,33.393 19.340 C 34.064 20.700,34.370 21.874,34.479 23.499 C 34.532 24.285,34.579 24.532,34.718 24.757 C 35.224 25.575,36.366 25.714,37.040 25.040 C 37.444 24.636,37.519 24.262,37.435 23.055 C 36.916 15.588,30.463 10.020,22.960 10.565 " stroke="none" fill-rule="evenodd" fill="black"></path></svg>