<svg width="48" height="48" viewBox="0 0 48 48" fill="none" xmlns="http://www.w3.org/2000/svg">
    <path d="M11.080 21.147 C 10.348 21.387,9.680 21.976,9.309 22.709 C 9.100 23.120,9.080 23.235,9.080 24.000 C 9.080 24.770,9.100 24.879,9.314 25.301 C 9.591 25.849,10.204 26.452,10.760 26.724 C 11.107 26.894,11.271 26.920,12.000 26.920 C 12.729 26.920,12.893 26.894,13.240 26.724 C 13.796 26.452,14.409 25.849,14.686 25.301 C 14.900 24.879,14.920 24.770,14.920 24.000 C 14.920 23.271,14.894 23.107,14.724 22.760 C 14.453 22.206,13.849 21.591,13.307 21.317 C 12.921 21.121,12.740 21.083,12.125 21.064 C 11.682 21.050,11.276 21.083,11.080 21.147 M23.080 21.147 C 22.348 21.387,21.680 21.976,21.309 22.709 C 21.100 23.120,21.080 23.235,21.080 24.000 C 21.080 24.770,21.100 24.879,21.314 25.301 C 21.591 25.849,22.204 26.452,22.760 26.724 C 23.107 26.894,23.271 26.920,24.000 26.920 C 24.729 26.920,24.893 26.894,25.240 26.724 C 25.796 26.452,26.409 25.849,26.686 25.301 C 26.900 24.879,26.920 24.770,26.920 24.000 C 26.920 23.271,26.894 23.107,26.724 22.760 C 26.453 22.206,25.849 21.591,25.307 21.317 C 24.921 21.121,24.740 21.083,24.125 21.064 C 23.682 21.050,23.276 21.083,23.080 21.147 M35.080 21.147 C 34.348 21.387,33.680 21.976,33.309 22.709 C 33.100 23.120,33.080 23.235,33.080 24.000 C 33.080 24.770,33.100 24.879,33.314 25.301 C 33.591 25.849,34.204 26.452,34.760 26.724 C 35.107 26.894,35.271 26.920,36.000 26.920 C 36.729 26.920,36.893 26.894,37.240 26.724 C 37.796 26.452,38.409 25.849,38.686 25.301 C 38.900 24.879,38.920 24.770,38.920 24.000 C 38.920 23.271,38.894 23.107,38.724 22.760 C 38.453 22.206,37.849 21.591,37.307 21.317 C 36.921 21.121,36.740 21.083,36.125 21.064 C 35.682 21.050,35.276 21.083,35.080 21.147 "
          stroke="none" fill="black" fill-rule="evenodd"></path>
</svg>