<svg width="48" height="48" viewBox="0 0 48 48" fill="none" xmlns="http://www.w3.org/2000/svg"><path d="M23.880 8.519 C 23.836 8.534,23.704 8.567,23.586 8.593 C 23.276 8.661,22.879 9.025,22.710 9.397 C 22.572 9.702,22.563 10.083,22.562 16.098 L 22.560 22.475 16.060 22.498 L 9.560 22.520 9.255 22.710 C 8.770 23.011,8.533 23.437,8.533 24.007 C 8.533 24.406,8.572 24.540,8.767 24.815 C 8.895 24.997,9.144 25.221,9.320 25.313 C 9.636 25.478,9.726 25.480,16.100 25.502 L 22.560 25.525 22.560 31.975 L 22.560 38.426 22.752 38.754 C 23.233 39.574,24.452 39.716,25.096 39.027 C 25.532 38.560,25.520 38.764,25.520 31.883 L 25.520 25.520 31.716 25.520 C 35.939 25.520,38.043 25.492,38.325 25.432 C 39.807 25.114,39.847 22.943,38.377 22.573 C 38.114 22.506,36.233 22.480,31.765 22.480 L 25.520 22.480 25.520 16.027 L 25.520 9.574 25.328 9.246 C 25.221 9.064,24.999 8.843,24.828 8.749 C 24.528 8.584,24.041 8.466,23.880 8.519 " stroke="none" fill-rule="evenodd" fill="black"></path></svg>