<svg width="48" height="48" viewBox="0 0 48 48" fill="none" xmlns="http://www.w3.org/2000/svg"><path d="M18.840 10.519 C 18.796 10.534,18.662 10.568,18.541 10.594 C 18.248 10.659,17.762 11.097,17.628 11.416 C 17.485 11.759,17.491 12.256,17.644 12.623 C 17.730 12.829,19.462 14.615,23.302 18.460 L 28.837 24.001 23.302 29.540 C 19.452 33.394,17.730 35.171,17.644 35.377 C 17.328 36.137,17.627 36.957,18.358 37.339 C 18.675 37.504,19.336 37.497,19.682 37.324 C 20.108 37.110,32.205 24.988,32.357 24.623 C 32.514 24.243,32.514 23.757,32.357 23.377 C 32.212 23.029,20.114 10.891,19.720 10.699 C 19.467 10.575,18.975 10.475,18.840 10.519 " stroke="none" fill-rule="evenodd" fill="black"></path></svg>