<svg width="48" height="48" viewBox="0 0 48 48" fill="none" xmlns="http://www.w3.org/2000/svg"><path d="M9.360 5.642 C 9.009 5.799,2.873 11.928,2.677 12.318 C 2.503 12.663,2.496 13.324,2.661 13.642 C 3.041 14.369,3.865 14.672,4.612 14.360 C 4.787 14.287,5.591 13.554,6.689 12.466 L 8.480 10.691 8.480 24.000 L 8.480 37.309 6.689 35.534 C 5.591 34.446,4.787 33.713,4.612 33.640 C 3.865 33.328,3.041 33.631,2.661 34.358 C 2.495 34.677,2.503 35.337,2.678 35.682 C 2.837 35.996,8.668 41.886,9.153 42.223 C 9.417 42.406,9.550 42.440,10.000 42.440 C 10.450 42.440,10.583 42.406,10.847 42.223 C 11.332 41.886,17.163 35.996,17.322 35.682 C 17.497 35.337,17.505 34.677,17.339 34.358 C 16.958 33.629,16.136 33.328,15.383 33.642 C 15.199 33.719,14.426 34.425,13.305 35.538 L 11.520 37.312 11.520 24.001 L 11.520 10.691 13.311 12.466 C 14.409 13.554,15.213 14.287,15.388 14.360 C 16.135 14.672,16.959 14.369,17.339 13.642 C 17.505 13.323,17.497 12.663,17.322 12.318 C 17.165 12.007,11.334 6.115,10.854 5.782 C 10.472 5.517,9.784 5.453,9.360 5.642 M21.440 7.610 C 20.915 7.818,20.537 8.400,20.537 9.000 C 20.537 9.613,20.920 10.189,21.465 10.395 C 21.781 10.514,44.219 10.514,44.535 10.395 C 45.080 10.189,45.463 9.613,45.463 9.000 C 45.463 8.387,45.080 7.811,44.535 7.605 C 44.232 7.491,21.728 7.495,21.440 7.610 M21.440 17.610 C 20.915 17.818,20.537 18.400,20.537 19.000 C 20.537 19.613,20.920 20.189,21.465 20.395 C 21.779 20.514,36.221 20.514,36.535 20.395 C 37.080 20.189,37.463 19.613,37.463 19.000 C 37.463 18.387,37.080 17.811,36.535 17.605 C 36.234 17.491,21.726 17.496,21.440 17.610 M21.440 27.610 C 20.915 27.818,20.537 28.400,20.537 29.000 C 20.537 29.613,20.920 30.189,21.465 30.395 C 21.620 30.454,25.204 30.480,33.000 30.480 C 40.796 30.480,44.380 30.454,44.535 30.395 C 45.080 30.189,45.463 29.613,45.463 29.000 C 45.463 28.387,45.080 27.811,44.535 27.605 C 44.232 27.491,21.728 27.495,21.440 27.610 M21.440 37.610 C 20.915 37.818,20.537 38.400,20.537 39.000 C 20.537 39.613,20.920 40.189,21.465 40.395 C 21.618 40.453,24.030 40.480,29.000 40.480 C 33.970 40.480,36.382 40.453,36.535 40.395 C 37.080 40.189,37.463 39.613,37.463 39.000 C 37.463 38.387,37.080 37.811,36.535 37.605 C 36.234 37.491,21.726 37.496,21.440 37.610 " stroke="none" fill-rule="evenodd" fill="black"></path></svg>