<svg width="48" height="48" viewBox="0 0 48 48" fill="none" xmlns="http://www.w3.org/2000/svg"><path d="M19.680 2.563 C 14.387 2.906,9.374 5.656,6.159 9.982 C 2.839 14.449,1.725 20.121,3.093 25.600 C 3.649 27.829,4.750 30.118,6.221 32.108 C 6.992 33.150,8.850 35.008,9.892 35.779 C 14.474 39.167,20.093 40.286,25.600 38.907 C 27.862 38.340,30.316 37.146,32.238 35.677 L 32.984 35.107 36.952 39.064 C 41.216 43.317,41.150 43.263,41.890 43.179 C 42.799 43.077,43.403 42.120,43.120 41.229 C 43.042 40.982,42.235 40.131,39.064 36.952 L 35.107 32.984 35.677 32.238 C 39.147 27.699,40.316 21.849,38.871 16.262 C 38.258 13.891,36.940 11.303,35.335 9.320 C 34.596 8.406,33.056 6.929,32.108 6.224 C 29.689 4.426,26.989 3.266,24.040 2.759 C 23.370 2.644,21.253 2.470,20.800 2.494 C 20.690 2.499,20.186 2.531,19.680 2.563 M23.122 5.644 C 25.690 6.002,28.169 7.015,30.240 8.552 C 30.976 9.098,32.419 10.485,33.038 11.240 C 34.788 13.377,35.968 16.093,36.356 18.878 C 36.515 20.015,36.515 21.985,36.356 23.122 C 35.998 25.690,34.985 28.169,33.448 30.240 C 32.902 30.976,31.515 32.419,30.760 33.038 C 26.586 36.456,20.769 37.423,15.657 35.548 C 12.611 34.431,9.920 32.306,8.074 29.560 C 5.384 25.558,4.765 20.256,6.452 15.657 C 7.569 12.611,9.694 9.920,12.440 8.074 C 14.218 6.879,16.615 5.965,18.800 5.647 C 19.859 5.494,22.033 5.492,23.122 5.644 M20.108 10.566 C 18.769 10.688,17.385 11.130,16.240 11.802 C 15.439 12.271,14.358 13.146,14.103 13.532 C 13.307 14.734,14.636 16.307,15.927 15.691 C 16.121 15.598,16.550 15.287,16.880 15.000 C 17.537 14.429,18.459 13.932,19.280 13.707 C 19.672 13.599,20.096 13.564,21.000 13.564 C 21.904 13.564,22.328 13.599,22.720 13.707 C 23.541 13.932,24.463 14.429,25.120 15.000 C 25.912 15.689,26.302 15.874,26.828 15.812 C 27.602 15.720,28.211 14.967,28.128 14.207 C 28.069 13.672,27.812 13.317,27.026 12.687 C 25.544 11.499,23.802 10.753,22.160 10.602 C 21.109 10.505,20.825 10.500,20.108 10.566 " fill="black" stroke="none" fill-rule="evenodd"></path></svg>