<svg width="48" height="48" viewBox="0 0 48 48" fill="none" xmlns="http://www.w3.org/2000/svg"><path d="M18.360 4.554 C 18.159 4.657,15.749 7.012,11.869 10.899 C 6.869 15.907,5.679 17.139,5.600 17.389 C 5.284 18.382,5.966 19.360,6.975 19.360 C 7.181 19.360,7.451 19.322,7.575 19.276 C 7.700 19.230,9.962 17.032,12.660 14.337 L 17.520 9.480 17.520 25.895 C 17.520 37.298,17.546 42.378,17.605 42.535 C 17.811 43.080,18.387 43.463,19.000 43.463 C 19.613 43.463,20.189 43.080,20.395 42.535 C 20.454 42.378,20.480 36.724,20.480 23.940 C 20.480 5.628,20.479 5.569,20.317 5.234 C 19.974 4.525,19.049 4.203,18.360 4.554 M28.326 4.780 C 28.175 4.857,27.941 5.058,27.806 5.227 L 27.560 5.535 27.539 24.010 C 27.519 42.426,27.519 42.485,27.681 42.802 C 27.993 43.414,28.808 43.737,29.491 43.520 C 29.741 43.441,30.971 42.253,35.982 37.251 C 40.139 33.101,42.216 30.973,42.322 30.755 C 42.692 29.994,42.330 29.012,41.575 28.725 C 41.288 28.616,40.716 28.616,40.425 28.724 C 40.300 28.770,38.038 30.968,35.340 33.663 L 30.480 38.520 30.480 22.137 C 30.480 6.190,30.476 5.746,30.328 5.457 C 30.144 5.099,29.878 4.840,29.575 4.725 C 29.235 4.597,28.634 4.623,28.326 4.780 " stroke="none" fill-rule="evenodd" fill="black"></path></svg>