<svg width="48" height="48" viewBox="0 0 48 48" fill="none" xmlns="http://www.w3.org/2000/svg"><path d="M15.345 2.126 C 14.624 2.348,14.000 3.218,14.000 4.000 C 14.000 4.475,14.241 5.028,14.607 5.395 C 15.048 5.835,15.457 5.966,16.600 6.032 C 18.174 6.123,19.302 6.584,20.248 7.523 C 20.736 8.008,20.930 8.276,21.229 8.883 C 21.434 9.300,21.683 9.946,21.781 10.320 L 21.960 11.000 21.960 24.000 L 21.960 37.000 21.781 37.680 C 21.078 40.352,19.304 41.810,16.560 41.970 C 15.457 42.034,15.044 42.168,14.607 42.605 C 14.241 42.972,14.000 43.525,14.000 44.000 C 14.000 44.827,14.626 45.658,15.423 45.890 C 16.499 46.203,19.250 45.738,20.739 44.993 C 21.814 44.455,22.892 43.603,23.667 42.680 L 24.003 42.280 24.295 42.640 C 25.016 43.528,26.183 44.453,27.261 44.993 C 28.750 45.738,31.501 46.203,32.577 45.890 C 33.374 45.658,34.000 44.827,34.000 44.000 C 34.000 43.525,33.759 42.972,33.393 42.605 C 32.956 42.168,32.543 42.034,31.440 41.970 C 29.204 41.839,27.642 40.884,26.771 39.117 C 26.566 38.700,26.317 38.054,26.219 37.680 L 26.040 37.000 26.040 24.160 L 26.040 11.320 26.268 10.640 C 26.903 8.750,28.081 7.254,29.465 6.579 C 30.188 6.227,30.755 6.081,31.695 6.005 C 32.149 5.969,32.652 5.884,32.813 5.816 C 33.451 5.550,34.000 4.709,34.000 4.000 C 34.000 3.196,33.376 2.346,32.621 2.122 C 32.139 1.979,31.723 1.970,30.798 2.083 C 29.282 2.269,27.901 2.778,26.673 3.603 C 26.064 4.012,24.796 5.200,24.390 5.741 L 24.194 6.002 23.665 5.337 C 22.793 4.240,21.421 3.242,20.068 2.720 C 18.522 2.124,16.272 1.841,15.345 2.126 " stroke="none" fill-rule="evenodd" fill="black"></path></svg>