<svg width="48" height="48" viewBox="0 0 48 48" fill="none" xmlns="http://www.w3.org/2000/svg"><path d="M22.640 2.562 C 14.081 3.049,6.504 8.818,3.686 16.993 C 2.360 20.837,2.163 25.119,3.128 29.099 C 5.009 36.856,11.144 42.991,18.901 44.872 C 22.212 45.675,25.788 45.675,29.099 44.872 C 36.856 42.991,42.991 36.856,44.872 29.099 C 45.675 25.788,45.675 22.212,44.872 18.901 C 42.850 10.563,35.970 4.191,27.484 2.796 C 26.669 2.662,24.148 2.457,23.760 2.493 C 23.694 2.500,23.190 2.530,22.640 2.562 M26.293 5.643 C 28.401 5.920,30.249 6.474,32.120 7.392 C 37.755 10.157,41.536 15.445,42.357 21.707 C 42.601 23.572,42.488 26.053,42.069 27.997 C 41.490 30.686,40.007 33.710,38.242 35.800 C 36.495 37.870,34.480 39.452,32.121 40.608 C 29.523 41.881,26.923 42.480,24.000 42.480 C 21.075 42.480,18.473 41.880,15.880 40.608 C 10.245 37.843,6.464 32.555,5.643 26.293 C 5.399 24.428,5.512 21.947,5.931 20.003 C 6.354 18.040,7.407 15.550,8.536 13.840 C 11.501 9.353,16.262 6.376,21.640 5.645 C 22.760 5.493,25.139 5.492,26.293 5.643 M23.652 10.569 C 23.225 10.669,22.908 10.914,22.698 11.307 L 22.520 11.640 22.497 17.754 C 22.481 22.065,22.501 23.999,22.565 24.314 L 22.655 24.760 27.068 29.184 C 29.494 31.617,31.588 33.675,31.720 33.757 C 32.433 34.201,33.425 33.923,33.816 33.170 C 33.972 32.870,33.988 32.120,33.844 31.840 C 33.788 31.730,31.893 29.786,29.633 27.520 L 25.523 23.400 25.502 17.480 C 25.480 11.678,25.477 11.554,25.316 11.281 C 24.983 10.715,24.292 10.419,23.652 10.569 " fill="black" stroke="none" fill-rule="evenodd"></path></svg>