<svg width="48" height="48" viewBox="0 0 48 48" fill="none" xmlns="http://www.w3.org/2000/svg"><path d="M11.629 12.554 C 11.279 12.640,10.923 12.911,10.712 13.252 C 10.469 13.646,10.465 14.348,10.703 14.729 C 10.796 14.878,13.655 17.777,17.056 21.172 C 23.032 27.137,23.253 27.347,23.620 27.422 C 23.867 27.473,24.133 27.473,24.380 27.422 C 24.747 27.347,24.968 27.137,30.980 21.134 C 34.509 17.609,37.255 14.805,37.329 14.650 C 37.506 14.277,37.494 13.674,37.302 13.303 C 37.216 13.136,36.997 12.895,36.815 12.767 C 36.542 12.574,36.405 12.533,36.022 12.533 C 35.768 12.533,35.469 12.579,35.360 12.635 C 35.250 12.692,32.649 15.244,29.580 18.308 L 24.000 23.878 18.420 18.308 C 15.351 15.244,12.768 12.702,12.680 12.658 C 12.437 12.537,11.910 12.486,11.629 12.554 M11.629 32.556 C 10.662 32.787,10.196 34.008,10.767 34.815 C 10.895 34.997,11.144 35.221,11.320 35.313 C 11.640 35.480,11.644 35.480,23.760 35.501 C 32.386 35.517,36.003 35.497,36.307 35.434 C 37.805 35.124,37.858 32.946,36.377 32.573 C 35.957 32.467,12.070 32.451,11.629 32.556 " stroke="none" fill-rule="evenodd" fill="black"></path></svg>