<svg width="48" height="48" viewBox="0 0 48 48" fill="none" xmlns="http://www.w3.org/2000/svg"><path d="M11.440 11.610 C 10.915 11.818,10.537 12.400,10.537 13.000 C 10.537 13.613,10.920 14.189,11.465 14.395 C 11.781 14.514,36.219 14.514,36.535 14.395 C 37.080 14.189,37.463 13.613,37.463 13.000 C 37.463 12.387,37.080 11.811,36.535 11.605 C 36.232 11.491,11.728 11.495,11.440 11.610 M23.360 19.646 C 23.009 19.797,10.878 31.917,10.677 32.318 C 10.503 32.663,10.496 33.325,10.661 33.642 C 11.043 34.374,11.864 34.672,12.623 34.356 C 12.829 34.270,14.615 32.538,18.460 28.698 L 24.000 23.164 29.540 28.698 C 33.385 32.538,35.171 34.270,35.377 34.356 C 36.136 34.672,36.957 34.374,37.339 33.642 C 37.504 33.325,37.497 32.664,37.324 32.318 C 37.110 31.892,24.988 19.795,24.623 19.643 C 24.250 19.489,23.725 19.490,23.360 19.646 " stroke="none" fill-rule="evenodd" fill="black"></path></svg>