<svg width="48" height="48" viewBox="0 0 48 48" fill="none" xmlns="http://www.w3.org/2000/svg"><path d="M24.658 16.559 C 24.515 16.593,24.263 16.714,24.098 16.828 C 23.934 16.942,21.093 19.746,17.784 23.058 C 13.586 27.260,11.730 29.170,11.644 29.377 C 11.328 30.137,11.627 30.957,12.358 31.339 C 12.676 31.504,13.337 31.497,13.682 31.323 C 13.835 31.246,16.444 28.703,19.480 25.673 L 25.000 20.162 30.520 25.673 C 33.556 28.703,36.165 31.246,36.318 31.323 C 36.663 31.497,37.324 31.504,37.642 31.339 C 38.373 30.957,38.672 30.137,38.357 29.377 C 38.212 29.029,26.114 16.891,25.720 16.699 C 25.394 16.540,24.974 16.484,24.658 16.559 " stroke="none" fill-rule="evenodd" fill="black"></path></svg>